<svg width="74" height="69" viewBox="0 0 74 69" fill="none" xmlns="http://www.w3.org/2000/svg">
<g filter="url(#filter0_dd_1326_126)">
<rect x="5.25" width="63" height="63" rx="31.5" fill="url(#paint0_linear_1326_126)"/>
<path fill-rule="evenodd" clip-rule="evenodd" d="M13.7591 27.5099C13.6534 27.5099 13.6273 27.4568 13.6799 27.3781L14.2338 26.6659C14.286 26.5867 14.4182 26.534 14.5235 26.534H23.9372C24.0429 26.534 24.069 26.6132 24.0164 26.6924L23.5682 27.3781C23.5156 27.4568 23.3838 27.536 23.3046 27.536L13.7591 27.5099ZM9.77732 29.9354C9.67204 29.9354 9.6455 29.8832 9.69814 29.8036L10.252 29.0918C10.3046 29.0126 10.4365 28.96 10.5422 28.96H22.5658C22.6711 28.96 22.7242 29.0392 22.6977 29.1184L22.4867 29.751C22.4606 29.8567 22.3548 29.9093 22.2495 29.9093L9.77732 29.9354ZM16.1581 32.3614C16.0528 32.3614 16.0267 32.2822 16.0793 32.203L16.4483 31.5439C16.5014 31.4647 16.6067 31.386 16.7124 31.386H21.9855C22.0912 31.386 22.1438 31.4647 22.1438 31.5704L22.0916 32.203C22.0916 32.3087 21.9859 32.3879 21.9067 32.3879L16.1581 32.3614ZM43.5285 27.0352C41.867 27.4573 40.7332 27.7736 39.0986 28.1951C38.7027 28.3009 38.6766 28.327 38.3337 27.9315C37.9382 27.4834 37.6481 27.1932 37.0946 26.9295C35.4331 26.1124 33.8246 26.3496 32.3219 27.3254C30.529 28.4853 29.6062 30.1991 29.6323 32.3349C29.6584 34.4445 31.1089 36.1848 33.192 36.475C34.985 36.7121 36.4882 36.0791 37.6746 34.7347C37.9117 34.4445 38.1227 34.1282 38.3864 33.7588H33.2973C32.7439 33.7588 32.6121 33.416 32.7966 32.9679C33.1394 32.1504 33.772 30.7795 34.1409 30.0938C34.2206 29.9354 34.405 29.6718 34.8005 29.6718H44.3982C44.346 30.384 44.346 31.0958 44.2403 31.808C43.9501 33.7062 43.2383 35.4465 42.078 36.9758C40.1793 39.4809 37.7011 41.0363 34.563 41.4583C31.9791 41.8012 29.5796 41.3 27.4704 39.718C25.5191 38.2414 24.4118 36.2901 24.1217 33.8646C23.7788 30.9905 24.6224 28.4061 26.3627 26.1386C28.2348 23.6865 30.7134 22.1307 33.7459 21.5768C36.2245 21.1287 38.5974 21.4189 40.7332 22.869C42.1306 23.7918 43.1326 25.0574 43.7917 26.5867C43.9501 26.8242 43.8448 26.9561 43.5281 27.0348L43.5285 27.0352Z" fill="white"/>
<path d="M52.2563 41.6168C49.8569 41.5637 47.668 40.8785 45.8224 39.2961C44.2666 37.9517 43.2912 36.2376 42.9749 34.2071C42.5002 31.2277 43.3173 28.5907 45.1107 26.2444C47.0354 23.7127 49.3557 22.3944 52.4938 21.8406C55.183 21.3664 57.7147 21.63 60.0084 23.1854C62.0915 24.6094 63.3833 26.5341 63.7261 29.0654C64.1742 32.6252 63.1461 35.5258 60.6936 38.0044C58.9533 39.7708 56.8176 40.8785 54.3655 41.3792C53.6537 41.5111 52.9415 41.5376 52.2563 41.6168ZM58.5318 30.9641C58.5057 30.6212 58.5057 30.3576 58.4526 30.0939C57.9784 27.4835 55.5785 26.0068 53.0738 26.5872C50.6213 27.1406 49.0394 28.6965 48.4594 31.1751C47.9847 33.2316 48.9867 35.3148 50.8849 36.1584C52.3355 36.7914 53.7856 36.7122 55.183 36.0005C57.2661 34.9193 58.3999 33.2317 58.5318 30.9641Z" fill="white"/>
</g>
<defs>
<filter id="filter0_dd_1326_126" x="0" y="-5.25" width="73.5" height="73.5" filterUnits="userSpaceOnUse" color-interpolation-filters="sRGB">
<feFlood flood-opacity="0" result="BackgroundImageFix"/>
<feColorMatrix in="SourceAlpha" type="matrix" values="0 0 0 0 0 0 0 0 0 0 0 0 0 0 0 0 0 0 127 0" result="hardAlpha"/>
<feOffset/>
<feGaussianBlur stdDeviation="2.625"/>
<feComposite in2="hardAlpha" operator="out"/>
<feColorMatrix type="matrix" values="0 0 0 0 0.715625 0 0 0 0 0.728516 0 0 0 0 0.75 0 0 0 0.04 0"/>
<feBlend mode="normal" in2="BackgroundImageFix" result="effect1_dropShadow_1326_126"/>
<feColorMatrix in="SourceAlpha" type="matrix" values="0 0 0 0 0 0 0 0 0 0 0 0 0 0 0 0 0 0 127 0" result="hardAlpha"/>
<feOffset dy="1.3125"/>
<feGaussianBlur stdDeviation="0.984375"/>
<feComposite in2="hardAlpha" operator="out"/>
<feColorMatrix type="matrix" values="0 0 0 0 0 0 0 0 0 0 0 0 0 0 0 0 0 0 0.02 0"/>
<feBlend mode="normal" in2="effect1_dropShadow_1326_126" result="effect2_dropShadow_1326_126"/>
<feBlend mode="normal" in="SourceGraphic" in2="effect2_dropShadow_1326_126" result="shape"/>
</filter>
<linearGradient id="paint0_linear_1326_126" x1="12.2063" y1="2.625" x2="54.5344" y2="63" gradientUnits="userSpaceOnUse">
<stop stop-color="#00ACD7"/>
<stop offset="1" stop-color="#00A8D3"/>
</linearGradient>
</defs>
</svg>
