<svg width="74" height="69" viewBox="0 0 74 69" fill="none" xmlns="http://www.w3.org/2000/svg">
<g filter="url(#filter0_dd_1326_114)">
<rect x="5.25" width="63" height="63" rx="31.5" fill="url(#paint0_linear_1326_114)"/>
<path d="M56.7537 17.6917L38.6671 7.18966C37.5264 6.53997 36.0413 6.53997 34.8916 7.18966L16.6117 17.6917C15.4346 18.3689 14.6016 19.6416 14.6016 21.0029V41.9791C14.6016 43.3404 15.4563 44.6135 16.6335 45.2944L21.4631 48.0375C23.7714 49.1745 24.5872 49.1745 25.6376 49.1745C29.0555 49.1745 31.0078 47.1077 31.0078 43.5028V22.7941C31.0078 22.5016 30.8556 22.0664 30.5685 22.0664H28.2622C27.9702 22.0664 27.3164 22.5016 27.3164 22.7936V43.5024C27.3164 45.1004 25.871 46.6906 23.1697 45.3399L18.1794 42.4635C18.0054 42.3692 17.8828 42.1793 17.8828 41.9791V21.0029C17.8828 20.8052 18.1104 20.6067 18.2856 20.5054L36.5064 10.0214C36.6766 9.92499 36.9268 9.92499 37.0966 10.0214L55.0951 20.5029C55.2673 20.6067 55.2066 20.7991 55.2066 21.0029V41.9791C55.2066 42.1793 55.2817 42.3741 55.1115 42.4705L37.0293 52.9606C36.8743 53.0537 36.6819 53.0537 36.5121 52.9606L31.8745 50.1925C31.7346 50.1113 31.5685 50.0822 31.4344 50.1572C30.144 50.8885 29.9061 50.9857 28.6958 51.4053C28.398 51.5091 27.9587 51.6892 28.8639 52.1965L34.9334 55.787C35.5129 56.1217 36.1702 56.298 36.8394 56.2981C37.5129 56.2981 38.1724 56.1233 38.7536 55.787L56.7533 45.2944C57.9305 44.6086 58.4883 43.3404 58.4883 41.9791V21.0029C58.4883 19.6416 57.9305 18.3722 56.7537 17.6917ZM42.4553 38.6552C37.6458 38.6552 36.5863 37.3283 36.2332 34.9367C36.1922 34.6791 35.9736 34.3711 35.7115 34.3711H33.3609C33.0701 34.3711 32.8363 34.7239 32.8363 35.0134C32.8363 38.0757 34.5011 41.7859 42.4557 41.7859C48.2139 41.7859 51.5152 39.5485 51.5152 35.5889C51.5152 31.6629 48.8627 30.6325 43.2785 29.8934C37.6339 29.1474 37.0605 28.7704 37.0605 27.4481C37.0605 26.3579 37.5461 24.9039 41.7256 24.9039C45.4601 24.9039 46.8366 25.7053 47.403 28.2225C47.4514 28.4591 47.6675 28.6289 47.9116 28.6289H50.2716C50.4168 28.6289 50.5554 28.5703 50.6572 28.4665C50.7556 28.355 50.8077 28.2151 50.7946 28.065C50.4291 23.7304 47.5494 21.7104 41.7252 21.7104C36.5445 21.7104 33.454 23.8982 33.454 27.5654C33.454 31.5431 36.5289 32.6423 41.5021 33.1341C47.4514 33.7173 47.914 34.5869 47.914 35.757C47.914 37.7894 46.2824 38.6552 42.4553 38.6552Z" fill="white"/>
</g>
<defs>
<filter id="filter0_dd_1326_114" x="0" y="-5.25" width="73.5" height="73.5" filterUnits="userSpaceOnUse" color-interpolation-filters="sRGB">
<feFlood flood-opacity="0" result="BackgroundImageFix"/>
<feColorMatrix in="SourceAlpha" type="matrix" values="0 0 0 0 0 0 0 0 0 0 0 0 0 0 0 0 0 0 127 0" result="hardAlpha"/>
<feOffset/>
<feGaussianBlur stdDeviation="2.625"/>
<feComposite in2="hardAlpha" operator="out"/>
<feColorMatrix type="matrix" values="0 0 0 0 0.715625 0 0 0 0 0.728516 0 0 0 0 0.75 0 0 0 0.04 0"/>
<feBlend mode="normal" in2="BackgroundImageFix" result="effect1_dropShadow_1326_114"/>
<feColorMatrix in="SourceAlpha" type="matrix" values="0 0 0 0 0 0 0 0 0 0 0 0 0 0 0 0 0 0 127 0" result="hardAlpha"/>
<feOffset dy="1.3125"/>
<feGaussianBlur stdDeviation="0.984375"/>
<feComposite in2="hardAlpha" operator="out"/>
<feColorMatrix type="matrix" values="0 0 0 0 0 0 0 0 0 0 0 0 0 0 0 0 0 0 0.02 0"/>
<feBlend mode="normal" in2="effect1_dropShadow_1326_114" result="effect2_dropShadow_1326_114"/>
<feBlend mode="normal" in="SourceGraphic" in2="effect2_dropShadow_1326_114" result="shape"/>
</filter>
<linearGradient id="paint0_linear_1326_114" x1="5.51244" y1="2.625" x2="63.2624" y2="67.2656" gradientUnits="userSpaceOnUse">
<stop stop-color="#83CD29"/>
<stop offset="1" stop-color="#74BE1A"/>
</linearGradient>
</defs>
</svg>
